{
   "accessors" : [
      {
         "bufferView" : 2,
         "byteOffset" : 0,
         "componentType" : 5126,
         "count" : 2962,
         "max" : [ 0.2195197343826294, 0.7372047901153564, 0.8277258276939392, 1 ],
         "min" : [ 0, 0.006584956776350737, 0.006584956776350737, 1 ],
         "name" : "accessor_color_m0-PolyPaper3_-266906",
         "type" : "VEC4"
      },
      {
         "bufferView" : 2,
         "byteOffset" : 47392,
         "componentType" : 5126,
         "count" : 4422,
         "max" : [ 1, 1, 1, 1 ],
         "min" : [ 1, 1, 1, 1 ],
         "name" : "accessor_color_m1-PolyGem25_-266904",
         "type" : "VEC4"
      },
      {
         "bufferView" : 0,
         "byteOffset" : 0,
         "componentType" : 5123,
         "count" : 4752,
         "max" : [ 2961 ],
         "min" : [ 0 ],
         "name" : "accessor_indices_0_m0-PolyPaper3_-266906",
         "type" : "SCALAR"
      },
      {
         "bufferView" : 0,
         "byteOffset" : 9504,
         "componentType" : 5123,
         "count" : 7320,
         "max" : [ 4421 ],
         "min" : [ 0 ],
         "name" : "accessor_indices_0_m1-PolyGem25_-266904",
         "type" : "SCALAR"
      },
      {
         "bufferView" : 1,
         "byteOffset" : 35544,
         "componentType" : 5126,
         "count" : 2962,
         "max" : [ 1, 1, 0.997377 ],
         "min" : [ -1, -1, -0.9969609 ],
         "name" : "accessor_normal_m0-PolyPaper3_-266906",
         "type" : "VEC3"
      },
      {
         "bufferView" : 1,
         "byteOffset" : 124152,
         "componentType" : 5126,
         "count" : 4422,
         "max" : [ 1, 1, 1 ],
         "min" : [ -1, -1, -1 ],
         "name" : "accessor_normal_m1-PolyGem25_-266904",
         "type" : "VEC3"
      },
      {
         "bufferView" : 1,
         "byteOffset" : 0,
         "componentType" : 5126,
         "count" : 2962,
         "max" : [ -0.4046817, 1.830033, 0.9451722 ],
         "min" : [ -1.352218, 0.4211573, -0.7752037000000001 ],
         "name" : "accessor_position_m0-PolyPaper3_-266906",
         "type" : "VEC3"
      },
      {
         "bufferView" : 1,
         "byteOffset" : 71088,
         "componentType" : 5126,
         "count" : 4422,
         "max" : [ -0.3952243, 1.829458, 0.9558436 ],
         "min" : [ -1.397423, 0.4211573, -0.7829556 ],
         "name" : "accessor_position_m1-PolyGem25_-266904",
         "type" : "VEC3"
      }
   ],
   "asset" : {
      "copyright" : "Unknown",
      "extras" : {
         "GOOGLE_processor_version" : 293297437
      },
      "generator" : "glTF 1-to-2 Upgrader for Google Blocks",
      "version" : "2.0"
   },
   "bufferViews" : [
      {
         "buffer" : 0,
         "byteLength" : 24144,
         "byteOffset" : 0,
         "name" : "ushortBufferView",
         "target" : 34963
      },
      {
         "buffer" : 0,
         "byteLength" : 177216,
         "byteOffset" : 24144,
         "byteStride" : 12,
         "name" : "vec3BufferView",
         "target" : 34962
      },
      {
         "buffer" : 0,
         "byteLength" : 118144,
         "byteOffset" : 201360,
         "byteStride" : 16,
         "name" : "vec4BufferView",
         "target" : 34962
      }
   ],
   "buffers" : [
      {
         "byteLength" : 319504,
         "name" : "model",
         "uri" : "model.bin"
      }
   ],
   "cameras" : [
      {
         "perspective" : {
            "yfov" : 0.7853981633974483,
            "znear" : 0.1000000014901161
         },
         "type" : "perspective"
      }
   ],
   "extensions" : {
      "KHR_lights_punctual" : {
         "lights" : [
            {
               "color" : [ 1, 0.9333333333333333, 0.8666666666666667 ],
               "intensity" : 0.25,
               "name" : "headLight",
               "type" : "directional"
            },
            {
               "color" : [ 1, 0.9333333333333333, 0.8666666666666667 ],
               "intensity" : 0.324999988079071,
               "name" : "keyLight",
               "type" : "directional"
            }
         ]
      }
   },
   "extensionsUsed" : [ "GOOGLE_backgrounds", "GOOGLE_camera_settings", "KHR_lights_punctual" ],
   "extras" : {
      "GOOGLE_initial_camera_motion" : {
         "motionPath" : "FULL_ROTATION"
      },
      "GOOGLE_lighting_rig" : {
         "disableShadows" : false
      }
   },
   "materials" : [
      {
         "alphaMode" : "OPAQUE",
         "doubleSided" : false,
         "name" : "BlocksPaper",
         "pbrMetallicRoughness" : {
            "baseColorFactor" : [ 1, 1, 1, 1 ],
            "metallicFactor" : 0,
            "roughnessFactor" : 0.6
         }
      },
      {
         "alphaMode" : "BLEND",
         "doubleSided" : false,
         "name" : "BlocksGlass",
         "pbrMetallicRoughness" : {
            "baseColorFactor" : [ 0.2, 0.2, 1, 0.3 ],
            "metallicFactor" : 1,
            "roughnessFactor" : 0.4
         }
      },
      {
         "alphaMode" : "OPAQUE",
         "doubleSided" : true,
         "name" : "BlocksGem",
         "pbrMetallicRoughness" : {
            "baseColorFactor" : [ 1, 0.4, 1, 1 ],
            "metallicFactor" : 0,
            "roughnessFactor" : 0.1
         }
      }
   ],
   "meshes" : [
      {
         "name" : "mesh_m0-PolyPaper3_-266906",
         "primitives" : [
            {
               "attributes" : {
                  "COLOR_0" : 0,
                  "NORMAL" : 4,
                  "POSITION" : 6
               },
               "indices" : 2,
               "material" : 0,
               "mode" : 4
            }
         ]
      },
      {
         "name" : "mesh_m1-PolyGem25_-266904",
         "primitives" : [
            {
               "attributes" : {
                  "COLOR_0" : 1,
                  "NORMAL" : 5,
                  "POSITION" : 7
               },
               "indices" : 3,
               "material" : 2,
               "mode" : 4
            }
         ]
      }
   ],
   "nodes" : [
      {
         "mesh" : 0,
         "name" : "node_MeshObject1196651904-PolyPaper3"
      },
      {
         "mesh" : 1,
         "name" : "node_MeshObject677931840-PolyGem25"
      },
      {
         "children" : [ 3 ]
      },
      {
         "children" : [ 4 ],
         "extras" : {
            "isTransformNode" : 1
         },
         "translation" : [ -0.9806040399833312, 1.140835729011497, 0.0701868654217405 ]
      },
      {
         "children" : [ 0, 1 ],
         "translation" : [ 0.9806040399833312, -1.140835729011497, -0.0701868654217405 ]
      },
      {
         "camera" : 0,
         "children" : [ 6 ],
         "rotation" : [
            -0.03197662262034792,
            0.7097865146118043,
            0.03228762951266193,
            0.7029495773250567
         ],
         "translation" : [ 2.418219260136725, 1.451208778453647, 0.03729786039450383 ]
      },
      {
         "extensions" : {
            "KHR_lights_punctual" : {
               "light" : 0
            }
         },
         "extras" : {
            "isHeadLight" : 1
         },
         "name" : "headLightNode",
         "translation" : [ -1.115956925228154, 0.5579784626140771, 0.5579784626140771 ]
      },
      {
         "extensions" : {
            "KHR_lights_punctual" : {
               "light" : 1
            }
         },
         "extras" : {
            "isKeyLight" : 1
         },
         "name" : "keyLightNode",
         "rotation" : [ -0.7505326882858236, -0.3752663441429118, 0, 0.5439447166468927 ],
         "scale" : [ 0, 0, 1.127116494480436 ],
         "translation" : [ -1.774709248443426, 3.54718544083196, -1.050965857175147 ]
      }
   ],
   "scene" : 0,
   "scenes" : [
      {
         "extensions" : {
            "GOOGLE_backgrounds" : {
               "color" : [ 0, 0, 0 ]
            },
            "GOOGLE_camera_settings" : {}
         },
         "extras" : {
            "GOOGLE_camera_index" : {
               "cameraIndex" : 0,
               "nodeIndex" : 5
            },
            "GOOGLE_geometry_data" : {
               "stats" : {
                  "centroid" : [ -0.64759275396299, 1.292952451871088, 0.07615063730528919 ],
                  "radius" : 1.115956925228154,
                  "stdev" : 0.6986779386986501
               },
               "visualCenterPoint" : [ -0.9806040399833312, 1.140835729011497, 0.0701868654217405 ]
            },
            "GOOGLE_hemi_light" : {
               "groundColor" : [ 0, 0, 0 ]
            }
         },
         "name" : "defaultScene",
         "nodes" : [ 2, 5, 7 ]
      }
   ]
}
